<svg id="Layer_1" data-name="Layer 1" xmlns="http://www.w3.org/2000/svg" viewBox="0 0 155.03 19.93"><defs><style>.cls-1{fill:#b51e23;}.cls-2{fill:#e21d3e;}.cls-3{fill:#a41e23;}.cls-4{fill:#fff;}.cls-5{fill:#0b293a;}</style></defs><path class="cls-1" d="M17.2,10.25a.85.85,0,0,1-.35-.08l-.41-.6V5.17l0-.17H5.89a.78.78,0,0,0-.76.8V24.13a.78.78,0,0,0,.76.8H20.38l-3-3.48-1.78,3.09-2-10,8.6,4V10.25Z" transform="translate(-5.13 -5)"/><polygon class="cls-1" points="17.05 18.12 17.05 13.77 14.14 14.81 17.05 18.12"/><polygon class="cls-2" points="11.28 0 11.28 0 11.28 0 11.28 0"/><polygon class="cls-3" points="11.73 5.18 17.05 10.28 17.05 5.25 11.73 5.18"/><path class="cls-2" d="M16.41,5h0l-.06,4.44a.83.83,0,0,0,.85.81h5Z" transform="translate(-5.13 -5)"/><path class="cls-4" d="M22.18,23.12l-2.91-3.31,2.91-1v-.29l-8.6-4,2,10,1.78-3.09,3,3.48h1.05a.75.75,0,0,0,.75-.75V23.12" transform="translate(-5.13 -5)"/><path class="cls-5" d="M34.48,10.84V14.4h6.24v2.51H34.48v4.91H31.36V8.34H41.55v2.5Z" transform="translate(-5.13 -5)"/><path class="cls-5" d="M43.54,15.08c0-4,3.12-7,7.38-7s7.37,2.94,7.37,7-3.13,7-7.37,7S43.54,19.08,43.54,15.08Zm11.6,0a4.22,4.22,0,1,0-8.44,0,4.22,4.22,0,1,0,8.44,0Z" transform="translate(-5.13 -5)"/><path class="cls-5" d="M70.09,21.82l-2.6-3.76H64.62v3.76H61.5V8.34h5.84c3.6,0,5.85,1.87,5.85,4.89a4.38,4.38,0,0,1-2.77,4.25l3,4.34ZM67.17,10.88H64.62v4.7h2.55c1.9,0,2.87-.89,2.87-2.35S69.07,10.88,67.17,10.88Z" transform="translate(-5.13 -5)"/><path class="cls-5" d="M88.79,21.82l0-8.09-4,6.66H83.39L79.45,13.9v7.92H76.52V8.34H79.1l5.05,8.37,5-8.37h2.56l0,13.48Z" transform="translate(-5.13 -5)"/><path class="cls-5" d="M94.71,20.49l1.06-2.35a7.92,7.92,0,0,0,4.45,1.4c1.85,0,2.6-.61,2.6-1.44,0-2.52-7.84-.79-7.84-5.8,0-2.29,1.85-4.19,5.68-4.19a9,9,0,0,1,4.68,1.19l-1,2.37a7.66,7.66,0,0,0-3.74-1.06c-1.85,0-2.56.69-2.56,1.54,0,2.48,7.84.77,7.84,5.72,0,2.25-1.87,4.18-5.72,4.18A9.63,9.63,0,0,1,94.71,20.49Z" transform="translate(-5.13 -5)"/><path class="cls-5" d="M108.36,20.08a1.87,1.87,0,0,1,3.73,0,1.87,1.87,0,1,1-3.73,0Z" transform="translate(-5.13 -5)"/><path class="cls-5" d="M123.93,14.87h2.85v5.46a9.27,9.27,0,0,1-5.45,1.72c-4.23,0-7.35-2.91-7.35-7s3.12-7,7.41-7A7.17,7.17,0,0,1,127,10.44l-2,1.85a4.57,4.57,0,0,0-3.48-1.53,4.16,4.16,0,0,0-4.41,4.32,4.16,4.16,0,0,0,4.37,4.31,4.88,4.88,0,0,0,2.42-.58Z" transform="translate(-5.13 -5)"/><path class="cls-5" d="M129.69,15.08c0-4,3.12-7,7.37-7s7.38,2.94,7.38,7-3.14,7-7.38,7S129.69,19.08,129.69,15.08Zm11.59,0a4.22,4.22,0,1,0-8.43,0,4.22,4.22,0,1,0,8.43,0Z" transform="translate(-5.13 -5)"/><path class="cls-5" d="M160.17,8.34l-5.84,13.48h-3.08L145.43,8.34h3.37L152.91,18l4.15-9.63Z" transform="translate(-5.13 -5)"/></svg>